<?xml version="1.0" encoding="utf-8"?>
<!-- Generator: Adobe Illustrator 24.1.0, SVG Export Plug-In . SVG Version: 6.00 Build 0)  -->
<svg version="1.1" id="Camada_1" xmlns="http://www.w3.org/2000/svg" xmlns:xlink="http://www.w3.org/1999/xlink" x="0px" y="0px"
	 viewBox="0 0 841.9 465.2" style="enable-background:new 0 0 841.9 465.2;" xml:space="preserve">
<g>
	<path d="M72.6,65.7v107.1c13.7-27.3,41.1-39.6,70.3-39.6c47.3,0,85,31.4,85,87c0,55.9-37.4,87-84.7,87c-28.8,0-56.6-14.3-70.6-39.9
		v37.2H56.1V65.7H72.6z M72.9,219.8c0,41.9,29.5,70.9,69.2,70.9c38,0,69.2-23.9,69.2-70.6c0-47.4-31.2-70.9-69.2-70.9
		C103.1,149.2,72.9,177.9,72.9,219.8z"/>
	<path d="M268.6,65.7v238.7h-16.8V65.7H268.6z"/>
	<path d="M461.2,135.9c0,56.3,0,112.2,0,168.5h-16.8v-35.8c-16.5,26.3-41.8,38.5-69.2,38.5c-47.3,0-86-35.5-86-87
		c0-51.5,38.7-86.3,86-86.3c27.4,0,55.2,12.6,69.2,38.9v-36.8H461.2z M305.9,220.1c0,42.3,30.8,70.6,69.2,70.6
		c94.3,0,94.3-140.8,0-140.8C336.8,149.9,305.9,177.9,305.9,220.1z"/>
	<path d="M629.5,282.9c-19.5,19.1-40.1,26.6-65.1,26.6c-49,0-89.8-29.3-89.8-89c0-59.7,40.8-89,89.8-89c24,0,42.5,6.8,61,24.9
		L599,184c-9.9-8.9-22.3-13.3-33.9-13.3c-28.1,0-48.7,20.5-48.7,49.8c0,32.1,21.9,49.1,48,49.1c13.4,0,26.7-3.8,37-14L629.5,282.9z"
		/>
	<path d="M671.6,66v137.8l56.9-67.5h50v2.4l-68.9,76.7l78.5,85.9v3.1h-50.4l-66.1-76v76h-41.8V66H671.6z"/>
</g>
<g>
	<path d="M619.2,326.4v56.1h-3.9v-8.7c-3.3,6-9.8,9.4-16.6,9.4c-11.1,0-19.9-7.3-19.9-20.4c0-13.1,8.9-20.4,20-20.4
		c6.8,0,13.3,2.9,16.5,9.3v-25.2H619.2z M582.7,362.7c0,11,7.3,16.6,16.3,16.6c9.3,0,16.3-6.8,16.3-16.7c0-9.9-7.1-16.6-16.3-16.6
		C590,346.1,582.7,351.6,582.7,362.7z"/>
	<path d="M635.8,330c0,4.2-6.4,4.2-6.4,0S635.8,325.9,635.8,330z M630.5,342.8v39.8h3.9v-39.8H630.5z"/>
	<path d="M677.8,341.3l2.6,2.2l-3.9,4.5c2.8,3,4.9,7.1,4.9,13.5c0,6.9-4.1,13.9-10.7,16.8c7,2.5,10.9,7.4,10.9,14.2
		c0,10.7-8.4,15.8-18.9,15.8c-10.6,0-18.8-5.8-18.8-15.8h3.9c0,8.1,6.9,11.9,14.9,11.9s15.1-3.5,15.1-11.9c0-8.5-7.7-11.9-15.1-11.9
		c-11.5,0-18.7-8.6-18.7-19.2c0-12.3,8.4-19.3,18.7-19.3c4,0,8.2,1.4,11.3,3.6L677.8,341.3z M647.9,361.5c0,8.2,5.6,15.2,14.7,15.2
		c8.2,0,14.9-7.1,14.9-15.2c0-10-6.7-15.4-14.9-15.4C654.5,346.1,647.9,351.2,647.9,361.5z"/>
	<path d="M694.8,330c0,4.2-6.4,4.2-6.4,0S694.8,325.9,694.8,330z M689.5,342.8v39.8h3.9v-39.8H689.5z"/>
	<path d="M713.8,331v11.9h13.5v3.3h-13.5v24.1c0,5.4,1.1,9.1,7.3,9.1c1.9,0,4.1-0.6,6.1-1.6l1.4,3.2c-2.5,1.2-5,2-7.5,2
		c-8.5,0-11.2-5-11.2-12.7v-24.1h-8.5v-3.3h8.5v-11.5L713.8,331z"/>
	<path d="M774.7,342.9c0,13.2,0,26.4,0,39.6h-3.9v-8.4c-3.9,6.2-9.8,9.1-16.3,9.1c-11.1,0-20.2-8.3-20.2-20.4s9.1-20.3,20.2-20.3
		c6.4,0,13,3,16.3,9.1v-8.7H774.7z M738.3,362.7c0,9.9,7.2,16.6,16.3,16.6c22.2,0,22.2-33.1,0-33.1
		C745.5,346.2,738.3,352.8,738.3,362.7z"/>
	<path d="M789.4,326.4v56.1h-3.9v-56.1H789.4z"/>
</g>
</svg>
