<?xml version="1.0" encoding="utf-8"?>
<!-- Generator: Adobe Illustrator 24.1.0, SVG Export Plug-In . SVG Version: 6.00 Build 0)  -->
<svg version="1.1" id="Layer_1" xmlns="http://www.w3.org/2000/svg" xmlns:xlink="http://www.w3.org/1999/xlink" x="0px" y="0px"
	 viewBox="0 0 28.3 28.3" style="enable-background:new 0 0 28.3 28.3;" xml:space="preserve">
<path d="M23.4,5c-1.8-1.8-4.6-1.8-6.4,0c0,0,0,0,0,0L4.1,17.8c-0.3,0.3-0.4,0.7-0.4,1.1v4.3c0,0.8,0.7,1.5,1.5,1.5c0,0,0,0,0,0h4.3
	c0.4,0,0.8-0.2,1.1-0.4l12.8-12.8C25.1,9.6,25.1,6.8,23.4,5z M21.2,7.1c0.6,0.6,0.6,1.5,0,2.1l-1.1,1.1L18,8.2l1.1-1.1
	C19.7,6.5,20.6,6.5,21.2,7.1C21.2,7.1,21.2,7.1,21.2,7.1L21.2,7.1z M8.8,21.7H6.7v-2.1l9.2-9.2l2.1,2.1L8.8,21.7z"/>
</svg>
