<?xml version="1.0" encoding="utf-8"?>
<!-- Generator: Adobe Illustrator 24.1.0, SVG Export Plug-In . SVG Version: 6.00 Build 0)  -->
<svg version="1.1" id="Layer_1" xmlns="http://www.w3.org/2000/svg" xmlns:xlink="http://www.w3.org/1999/xlink" x="0px" y="0px"
	 viewBox="0 0 28.3 28.3" style="enable-background:new 0 0 28.3 28.3;" xml:space="preserve">
<path d="M6.2,24.4V4h9.1C18.4,4,21,6.5,21,9.6c0,1.3-0.4,2.6-1.3,3.6c2.7,2.1,3.2,6,1.1,8.8c-1.2,1.5-3,2.4-4.9,2.4H6.2z M14.7,15.3
	h-4V21h4c1.6,0,2.8-1.3,2.8-2.8C17.6,16.6,16.3,15.3,14.7,15.3z M10.8,7.4v4.5h3.4c1.3,0,2.3-1,2.3-2.3s-1-2.3-2.3-2.3H10.8z"/>
</svg>
