<?xml version="1.0" encoding="utf-8"?>
<!-- Generator: Adobe Illustrator 24.1.0, SVG Export Plug-In . SVG Version: 6.00 Build 0)  -->
<svg version="1.1" id="Layer_1" xmlns="http://www.w3.org/2000/svg" xmlns:xlink="http://www.w3.org/1999/xlink" x="0px" y="0px"
	 viewBox="0 0 28.3 28.3" style="enable-background:new 0 0 28.3 28.3;" xml:space="preserve">
<path d="M13.3,17.8c-0.4-0.8-0.4-1.7,0-2.4c2-0.2,3.5-1.9,3.3-3.9c-0.2-1.9-1.7-3.4-3.7-3.3H8.1c-2,0-3.6,1.6-3.6,3.6
	s1.6,3.6,3.6,3.6h0.1c-0.1,0.8-0.1,1.6,0,2.4H8.1c-3.3,0-6.1-2.7-6.1-6.1s2.7-6.1,6.1-6.1H13c3.3-0.1,6.1,2.6,6.2,5.9
	C19.3,14.9,16.6,17.7,13.3,17.8L13.3,17.8z M15.1,10.5c0.4,0.8,0.4,1.7,0,2.4c-2,0.2-3.5,1.9-3.3,3.9c0.2,1.9,1.7,3.4,3.7,3.3h4.8
	c2,0,3.6-1.6,3.6-3.6S22.2,13,20.2,13h-0.1c0.1-0.8,0.1-1.6,0-2.4h0.1c3.3,0,6.1,2.7,6.1,6.1s-2.7,6.1-6.1,6.1h-4.8
	c-3.3,0.1-6.1-2.6-6.2-5.9S11.7,10.6,15.1,10.5z"/>
</svg>
