<?xml version="1.0" encoding="utf-8"?>
<!-- Generator: Adobe Illustrator 24.1.0, SVG Export Plug-In . SVG Version: 6.00 Build 0)  -->
<svg version="1.1" id="Layer_1" xmlns="http://www.w3.org/2000/svg" xmlns:xlink="http://www.w3.org/1999/xlink" x="0px" y="0px"
	 viewBox="0 0 28.3 28.3" style="enable-background:new 0 0 28.3 28.3;" xml:space="preserve">
<path d="M3.4,7.7c0-1.2,1-2.2,2.2-2.2h17.3c1.2,0,2.2,1,2.2,2.2v13c0,1.2-1,2.2-2.2,2.2H5.5c-1.2,0-2.2-1-2.2-2.2V7.7z M15.3,17.4
	L12,14.2l-6.5,6.5h17.3l-5.4-5.4L15.3,17.4z M19.6,13.1c1.2,0,2.2-1,2.2-2.2s-1-2.2-2.2-2.2c-1.2,0-2.2,1-2.2,2.2
	S18.4,13.1,19.6,13.1z"/>
</svg>
