<?xml version="1.0" ?><svg viewBox="0 0 96 96" xmlns="http://www.w3.org/2000/svg"><title/><g><path d="M94.9936,44.6718C83.6788,27.7025,70.155,11.9989,48,11.9989S12.3212,27.7025,1.0064,44.6718a6.0063,6.0063,0,0,0,0,6.6564C12.3212,68.2975,25.845,84.0011,48,84.0011S83.6788,68.2975,94.9936,51.3282A6.0063,6.0063,0,0,0,94.9936,44.6718ZM48,72.0007C35.2672,72.0007,25.3294,65.21,13.2646,48,25.3294,30.7905,35.2672,23.9993,48,23.9993S70.6706,30.7905,82.7354,48C70.6706,65.21,60.7328,72.0007,48,72.0007Z"/><path d="M48,36A12,12,0,1,0,60,48,12.0161,12.0161,0,0,0,48,36Z"/></g></svg>